<svg aria-hidden="true" style="position: absolute; width: 0; height: 0; overflow: hidden;" version="1.1" xmlns="http://www.w3.org/2000/svg" xmlns:xlink="http://www.w3.org/1999/xlink">
<defs>
<symbol id="icon-bootstrap" viewBox="0 0 32 32">
<path fill="#563d7c" style="fill: var(--color1, #563d7c)" d="M26.667 0h-21.333c-2.943 0.008-5.325 2.391-5.333 5.333v21.333c0 2.933 2.4 5.333 5.333 5.333h21.333c2.933 0 5.333-2.4 5.333-5.333v-21.333c0-2.933-2.4-5.333-5.333-5.333zM23.751 22.473c-0.267 0.643-0.689 1.209-1.231 1.645-0.56 0.453-1.269 0.827-2.143 1.093-0.872 0.271-1.909 0.407-3.111 0.407h-8.576v-18.667h9.069c1.677 0 3.021 0.377 4.027 1.147 1.013 0.773 1.517 1.925 1.517 3.48 0 0.94-0.229 1.747-0.691 2.413-0.459 0.663-1.12 1.181-1.973 1.541v0.061c1.139 0.24 2.020 0.78 2.6 1.62s0.877 1.901 0.877 3.183c0 0.717-0.139 1.4-0.4 2.037zM20.049 17.873c-0.547-0.5-1.315-0.744-2.307-0.744h-5.763v5.824h5.779c0.987 0 1.76-0.256 2.307-0.773 0.547-0.513 0.827-1.245 0.827-2.187-0.009-0.92-0.28-1.632-0.827-2.12zM19.249 14.109c0.528-0.448 0.787-1.089 0.787-1.925 0-0.939-0.233-1.605-0.707-1.987-0.469-0.38-1.147-0.577-2.037-0.577h-5.333v5.151h5.333c0.777 0 1.44-0.227 1.957-0.661z"></path>
</symbol>
<symbol id="icon-github" viewBox="0 0 32 32">
<path d="M16 0.396c-8.84 0-16 7.164-16 16 0 7.071 4.584 13.067 10.94 15.18 0.8 0.151 1.093-0.344 1.093-0.769 0-0.38-0.013-1.387-0.020-2.72-4.451 0.965-5.389-2.147-5.389-2.147-0.728-1.847-1.78-2.34-1.78-2.34-1.449-0.992 0.112-0.972 0.112-0.972 1.607 0.112 2.451 1.648 2.451 1.648 1.427 2.447 3.745 1.74 4.66 1.331 0.144-1.035 0.556-1.74 1.013-2.14-3.553-0.4-7.288-1.776-7.288-7.907 0-1.747 0.62-3.173 1.647-4.293-0.18-0.404-0.72-2.031 0.14-4.235 0 0 1.34-0.429 4.4 1.64 1.28-0.356 2.64-0.532 4-0.54 1.36 0.008 2.72 0.184 4 0.54 3.040-2.069 4.38-1.64 4.38-1.64 0.86 2.204 0.32 3.831 0.16 4.235 1.020 1.12 1.64 2.547 1.64 4.293 0 6.147-3.74 7.5-7.3 7.893 0.56 0.48 1.080 1.461 1.080 2.96 0 2.141-0.020 3.861-0.020 4.381 0 0.42 0.28 0.92 1.1 0.76 6.401-2.099 10.981-8.099 10.981-15.159 0-8.836-7.164-16-16-16z"></path>
</symbol>
<symbol id="icon-github1" viewBox="0 0 32 32">
<path d="M16 0.396c-8.84 0-16 7.164-16 16 0 7.071 4.584 13.067 10.94 15.18 0.8 0.151 1.093-0.344 1.093-0.769 0-0.38-0.013-1.387-0.020-2.72-4.451 0.965-5.389-2.147-5.389-2.147-0.728-1.847-1.78-2.34-1.78-2.34-1.449-0.992 0.112-0.972 0.112-0.972 1.607 0.112 2.451 1.648 2.451 1.648 1.427 2.447 3.745 1.74 4.66 1.331 0.144-1.035 0.556-1.74 1.013-2.14-3.553-0.4-7.288-1.776-7.288-7.907 0-1.747 0.62-3.173 1.647-4.293-0.18-0.404-0.72-2.031 0.14-4.235 0 0 1.34-0.429 4.4 1.64 1.28-0.356 2.64-0.532 4-0.54 1.36 0.008 2.72 0.184 4 0.54 3.040-2.069 4.38-1.64 4.38-1.64 0.86 2.204 0.32 3.831 0.16 4.235 1.020 1.12 1.64 2.547 1.64 4.293 0 6.147-3.74 7.5-7.3 7.893 0.56 0.48 1.080 1.461 1.080 2.96 0 2.141-0.020 3.861-0.020 4.381 0 0.42 0.28 0.92 1.1 0.76 6.401-2.099 10.981-8.099 10.981-15.159 0-8.836-7.164-16-16-16z"></path>
</symbol>
<symbol id="icon-html5" viewBox="0 0 32 32">
<path fill="#e34f26" style="fill: var(--color3, #e34f26)" d="M2 0h28l-2.547 28.751-11.484 3.249-11.419-3.251zM11.375 13l-0.309-3.624 13.412 0.004 0.307-3.496-17.568-0.004 0.931 10.68h12.168l-0.435 4.568-3.88 1.072-3.94-1.080-0.251-2.813h-3.479l0.44 5.561 7.229 1.933 7.172-1.924 0.992-10.876z"></path>
</symbol>
<symbol id="icon-css3" viewBox="0 0 32 32">
<path fill="#1572b6" style="fill: var(--color4, #1572b6)" d="M2 0h28l-2.547 28.751-11.484 3.249-11.42-3.251zM24.787 5.884l-17.573-0.004 0.284 3.496 13.5 0.003-0.34 3.621h-8.853l0.32 3.431h8.243l-0.488 4.697-3.88 1.072-3.941-1.080-0.251-2.813h-3.48l0.387 5.14 7.287 2.271 7.164-2.040z"></path>
</symbol>
<symbol id="icon-java" viewBox="0 0 32 32">
<path fill="#007396" style="fill: var(--color5, #007396)" d="M11.801 24.747c0 0-1.223 0.712 0.871 0.952 2.536 0.291 3.832 0.249 6.625-0.281 0 0 0.736 0.461 1.761 0.861-6.265 2.684-14.177-0.157-9.257-1.532zM11.035 21.244c0 0-1.371 1.015 0.723 1.232 2.709 0.279 4.848 0.303 8.551-0.411 0 0 0.512 0.519 1.316 0.803-7.572 2.215-16.009 0.173-10.589-1.624zM17.488 15.3c1.544 1.777-0.405 3.377-0.405 3.377s3.919-2.024 2.119-4.557c-1.681-2.363-2.971-3.536 4.009-7.584 0-0.001-10.955 2.735-5.723 8.764zM25.773 27.339c0 0 0.905 0.745-0.996 1.321-3.616 1.096-15.051 1.425-18.225 0.044-1.141-0.497 1-1.187 1.672-1.331 0.703-0.152 1.104-0.124 1.104-0.124-1.271-0.895-8.208 1.756-3.524 2.516 12.773 2.071 23.283-0.933 19.969-2.427zM12.389 17.613c0 0-5.816 1.381-2.059 1.883 1.585 0.212 4.748 0.164 7.693-0.083 2.408-0.203 4.824-0.636 4.824-0.636s-0.849 0.363-1.464 0.783c-5.905 1.553-17.315 0.831-14.029-0.757 2.776-1.341 5.035-1.189 5.035-1.189zM22.821 23.445c6.004-3.12 3.228-6.119 1.291-5.713-0.473 0.099-0.687 0.184-0.687 0.184s0.176-0.276 0.513-0.396c3.833-1.348 6.781 3.975-1.237 6.083 0-0.001 0.093-0.083 0.12-0.157zM19.201 0c0 0 3.325 3.325-3.153 8.44-5.195 4.103-1.184 6.443-0.001 9.115-3.032-2.737-5.257-5.144-3.765-7.385 2.192-3.292 8.263-4.887 6.92-10.169zM12.979 31.899c5.763 0.369 14.612-0.204 14.821-2.931 0 0-0.403 1.033-4.763 1.855-4.917 0.925-10.985 0.817-14.583 0.224 0-0.001 0.737 0.609 4.524 0.852z"></path>
</symbol>
<symbol id="icon-linkedin" viewBox="0 0 32 32">
<path d="M29 0h-26c-1.65 0-3 1.35-3 3v26c0 1.65 1.35 3 3 3h26c1.65 0 3-1.35 3-3v-26c0-1.65-1.35-3-3-3zM12 26h-4v-14h4v14zM10 10c-1.106 0-2-0.894-2-2s0.894-2 2-2c1.106 0 2 0.894 2 2s-0.894 2-2 2zM26 26h-4v-8c0-1.106-0.894-2-2-2s-2 0.894-2 2v8h-4v-14h4v2.481c0.825-1.131 2.087-2.481 3.5-2.481 2.488 0 4.5 2.238 4.5 5v9z"></path>
</symbol>
<symbol id="icon-javascript" viewBox="0 0 32 32">
<path fill="#0065bd" style="fill: var(--color1, #0065bd)" d="M0 0h32v32h-32v-32z"></path>
<path fill="#fff" style="fill: var(--color2, #fff)" d="M8.416 26.74l2.446-1.482c0.473 0.842 0.903 1.543 1.929 1.543 0.991 0 1.613-0.386 1.613-1.894v-10.214h3.007v10.266c0 3.113-1.824 4.532-4.489 4.532-2.402 0-3.796-1.245-4.506-2.753z"></path>
<path fill="#fff" style="fill: var(--color2, #fff)" d="M19.051 26.416l2.446-1.42c0.649 1.052 1.482 1.824 2.963 1.824 1.245 0 2.043-0.622 2.043-1.482 0-1.034-0.816-1.394-2.192-1.999l-0.754-0.324c-2.166-0.921-3.612-2.087-3.612-4.532 0-2.253 1.718-3.971 4.401-3.971 1.911 0 3.288 0.666 4.278 2.403l-2.341 1.499c-0.517-0.921-1.069-1.289-1.929-1.289-0.877 0-1.438 0.561-1.438 1.289 0 0.903 0.561 1.271 1.85 1.824l0.754 0.324c2.56 1.096 3.997 2.209 3.997 4.726 0 2.709-2.131 4.191-4.98 4.191-2.806 0.016-4.612-1.317-5.488-3.061z"></path>
</symbol>
<symbol id="icon-sass" viewBox="0 0 43 32">
<path d="M36.717 18.383c-1.492 0.008-2.783 0.367-3.867 0.9-0.4-0.792-0.8-1.483-0.867-2-0.075-0.6-0.167-0.967-0.075-1.683s0.508-1.733 0.508-1.817c-0.008-0.075-0.092-0.442-0.95-0.45s-1.6 0.167-1.683 0.392-0.25 0.742-0.358 1.275c-0.15 0.783-1.717 3.558-2.608 5.017-0.292-0.567-0.542-1.067-0.592-1.467-0.075-0.6-0.167-0.967-0.075-1.683s0.508-1.733 0.508-1.817c-0.008-0.075-0.092-0.442-0.95-0.45s-1.6 0.167-1.683 0.392-0.175 0.758-0.358 1.275c-0.175 0.517-2.258 5.15-2.8 6.358-0.275 0.617-0.517 1.108-0.692 1.442s-0.008 0.025-0.025 0.058c-0.15 0.283-0.233 0.442-0.233 0.442v0.008c-0.117 0.208-0.242 0.408-0.3 0.408-0.042 0-0.125-0.558 0.017-1.325 0.308-1.608 1.058-4.117 1.050-4.208 0-0.042 0.142-0.483-0.483-0.708-0.608-0.225-0.825 0.15-0.875 0.15s-0.092 0.133-0.092 0.133 0.675-2.825-1.292-2.825c-1.233 0-2.933 1.342-3.775 2.567-0.533 0.292-1.667 0.908-2.867 1.567-0.458 0.25-0.933 0.517-1.383 0.758l-0.092-0.1c-2.383-2.542-6.792-4.342-6.608-7.758 0.067-1.242 0.5-4.517 8.467-8.483 6.525-3.25 11.75-2.358 12.658-0.375 1.292 2.833-2.792 8.1-9.575 8.858-2.583 0.292-3.942-0.708-4.283-1.083-0.358-0.392-0.408-0.408-0.542-0.333-0.217 0.117-0.083 0.467 0 0.675 0.2 0.525 1.033 1.458 2.45 1.925 1.242 0.408 4.275 0.633 7.942-0.783 4.108-1.592 7.317-6.008 6.375-9.7-0.958-3.758-7.192-4.992-13.083-2.9-3.508 1.25-7.308 3.2-10.042 5.758-3.25 3.033-3.767 5.683-3.55 6.783 0.758 3.925 6.167 6.483 8.333 8.375-0.108 0.058-0.208 0.117-0.3 0.167-1.083 0.533-5.208 2.692-6.242 4.975-1.167 2.583 0.183 4.442 1.083 4.692 2.783 0.775 5.633-0.617 7.175-2.908 1.533-2.292 1.35-5.267 0.642-6.625l-0.025-0.050 0.85-0.5c0.55-0.325 1.092-0.625 1.567-0.883-0.267 0.725-0.458 1.583-0.558 2.833-0.117 1.467 0.483 3.367 1.275 4.117 0.35 0.325 0.767 0.333 1.025 0.333 0.917 0 1.333-0.758 1.792-1.667 0.567-1.108 1.067-2.392 1.067-2.392s-0.625 3.475 1.083 3.475c0.625 0 1.25-0.808 1.533-1.225v0.008s0.017-0.025 0.050-0.083c0.028-0.040 0.061-0.092 0.092-0.145l0.008-0.014v-0.017c0.25-0.433 0.808-1.425 1.642-3.067 1.075-2.117 2.108-4.767 2.108-4.767s0.1 0.65 0.408 1.717c0.183 0.633 0.583 1.325 0.892 2-0.25 0.35-0.4 0.55-0.4 0.55l0.008 0.008c-0.2 0.267-0.425 0.55-0.658 0.833-0.85 1.017-1.867 2.175-2 2.508-0.158 0.392-0.125 0.683 0.183 0.917 0.225 0.167 0.625 0.2 1.050 0.167 0.767-0.050 1.3-0.242 1.567-0.358 0.417-0.15 0.892-0.375 1.35-0.708 0.833-0.617 1.342-1.492 1.292-2.658-0.025-0.642-0.233-1.275-0.492-1.875 0.075-0.108 0.15-0.217 0.225-0.333 1.317-1.925 2.333-4.042 2.333-4.042s0.1 0.65 0.408 1.717c0.158 0.542 0.475 1.133 0.758 1.717-1.233 1.008-2.008 2.175-2.275 2.942-0.492 1.417-0.108 2.058 0.617 2.208 0.325 0.067 0.792-0.083 1.142-0.233 0.433-0.142 0.958-0.383 1.442-0.742 0.833-0.617 1.633-1.475 1.592-2.633-0.025-0.533-0.167-1.058-0.358-1.558 1.050-0.433 2.408-0.683 4.133-0.475 3.708 0.433 4.442 2.75 4.3 3.717s-0.917 1.5-1.175 1.667c-0.258 0.158-0.342 0.217-0.317 0.333 0.033 0.175 0.15 0.167 0.375 0.133 0.308-0.050 1.95-0.792 2.017-2.575 0.1-2.292-2.075-4.792-5.933-4.767zM8.117 28.025c-1.225 1.342-2.95 1.85-3.683 1.417-0.792-0.458-0.483-2.433 1.025-3.858 0.917-0.867 2.108-1.667 2.892-2.158 0.175-0.108 0.442-0.267 0.758-0.458 0.050-0.033 0.083-0.050 0.083-0.050 0.058-0.033 0.125-0.075 0.192-0.117 0.558 2.033 0.025 3.817-1.267 5.225zM17.075 21.933c-0.425 1.042-1.325 3.717-1.867 3.567-0.467-0.125-0.75-2.15-0.092-4.15 0.333-1.008 1.042-2.208 1.458-2.675 0.675-0.75 1.408-1 1.592-0.692 0.217 0.4-0.825 3.3-1.092 3.95zM24.467 25.467c-0.183 0.092-0.35 0.158-0.425 0.108-0.058-0.033 0.075-0.158 0.075-0.158s0.925-0.992 1.292-1.45c0.208-0.267 0.458-0.575 0.725-0.925v0.1c0 1.2-1.15 2-1.667 2.325zM30.167 24.167c-0.133-0.1-0.117-0.408 0.333-1.375 0.175-0.383 0.575-1.025 1.267-1.633 0.083 0.25 0.133 0.492 0.125 0.717-0.008 1.5-1.075 2.058-1.725 2.292z"></path>
</symbol>
</defs>
</svg>
